<svg width="1600" height="900" viewBox="0 0 1600 900" fill="none" xmlns="http://www.w3.org/2000/svg">
  <defs>
    <radialGradient id="g1" cx="0" cy="0" r="1" gradientUnits="userSpaceOnUse" gradientTransform="translate(320 180) rotate(16) scale(520 360)">
      <stop stop-color="#FFCA28" stop-opacity="0.24"/>
      <stop offset="1" stop-color="#FFCA28" stop-opacity="0"/>
    </radialGradient>
    <radialGradient id="g2" cx="0" cy="0" r="1" gradientUnits="userSpaceOnUse" gradientTransform="translate(1220 720) rotate(-14) scale(540 420)">
      <stop stop-color="#55E5FF" stop-opacity="0.2"/>
      <stop offset="1" stop-color="#55E5FF" stop-opacity="0"/>
    </radialGradient>
    <linearGradient id="line" x1="280" y1="120" x2="1340" y2="780" gradientUnits="userSpaceOnUse">
      <stop stop-color="#FFFFFF" stop-opacity="0.34"/>
      <stop offset="1" stop-color="#FFFFFF" stop-opacity="0.04"/>
    </linearGradient>
  </defs>

  <rect width="1600" height="900" fill="transparent"/>
  <circle cx="320" cy="180" r="360" fill="url(#g1)"/>
  <circle cx="1220" cy="720" r="420" fill="url(#g2)"/>

  <g opacity="0.5">
    <path d="M120 660C320 540 520 660 700 550C900 430 1050 510 1290 420" stroke="url(#line)" stroke-width="2" stroke-linecap="round"/>
    <path d="M210 740C390 640 560 720 760 620C920 540 1100 600 1400 500" stroke="url(#line)" stroke-width="1.4" stroke-linecap="round"/>
    <path d="M260 180C420 250 610 160 780 250C980 360 1120 320 1340 390" stroke="url(#line)" stroke-width="1.2" stroke-linecap="round"/>
  </g>

  <g opacity="0.26" fill="#FFFFFF">
    <circle cx="260" cy="280" r="6"/>
    <circle cx="520" cy="220" r="4"/>
    <circle cx="910" cy="300" r="5"/>
    <circle cx="1180" cy="250" r="6"/>
    <circle cx="1350" cy="360" r="4"/>
    <circle cx="460" cy="690" r="5"/>
    <circle cx="720" cy="640" r="4"/>
    <circle cx="980" cy="700" r="6"/>
    <circle cx="1240" cy="650" r="4"/>
  </g>
</svg>
